<svg width="23" height="23" viewBox="0 0 23 23" fill="none" xmlns="http://www.w3.org/2000/svg">
<circle cx="11.5168" cy="11.3649" r="10.7856" fill="#FF5D6D"/>
<path d="M16.8376 8.94182L16.4715 8.42738C16.3948 8.31984 16.2442 8.29368 16.1336 8.36925L15.5078 8.80085C14.6753 7.79377 13.4577 7.10931 12.0777 6.96108V6.54401H12.4334C12.5987 6.54401 12.733 6.41177 12.733 6.24901V5.73311C12.733 5.57035 12.5987 5.43811 12.4334 5.43811H10.6003C10.435 5.43811 10.3007 5.57035 10.3007 5.73311V6.24901C10.3007 6.41177 10.435 6.54401 10.6003 6.54401H10.956V6.96108C9.57455 7.10931 8.35839 7.79377 7.52597 8.80085L6.90018 8.36925C6.79096 8.29368 6.63894 8.31984 6.56219 8.42738L6.19616 8.94182C6.11942 9.04935 6.14598 9.19903 6.2552 9.2746L6.91494 9.72946C6.56662 10.4125 6.3718 11.1827 6.3718 11.9979C6.37032 14.7954 8.67424 17.0638 11.5169 17.0638C14.3595 17.0638 16.6634 14.7954 16.6634 11.9965C16.6634 11.1812 16.4671 10.411 16.1203 9.72801L16.78 9.27315C16.8877 9.19903 16.9143 9.04935 16.8376 8.94182ZM14.361 14.7983C13.6009 15.5467 12.5913 15.9579 11.5169 15.9579C10.4424 15.9579 9.43139 15.5452 8.67276 14.7983C7.91266 14.0499 7.49498 13.0559 7.49498 11.9979C7.49498 10.94 7.91414 9.94453 8.67276 9.19758C9.43286 8.44917 10.4424 8.03791 11.5169 8.03791C12.5913 8.03791 13.6023 8.45063 14.361 9.19758C15.1211 9.94599 15.5388 10.94 15.5388 11.9979C15.5388 13.0559 15.1211 14.0499 14.361 14.7983Z" fill="white"/>
<path d="M11.5169 8.5885C9.60554 8.5885 8.05582 10.1144 8.05582 11.9963C8.05582 13.8782 9.60554 15.4055 11.5169 15.4055C12.4733 15.4055 13.3381 15.0233 13.9654 14.4072L11.5169 11.9963V8.5885Z" fill="white"/>
</svg>
